<svg width="48" height="52" viewBox="0 0 48 52" fill="none" xmlns="http://www.w3.org/2000/svg">
<path d="M23.8857 32.7912L33.352 52.1795L51.4537 62.27L51.2785 62.8233L56.6399 64.6147C56.942 64.7158 57.1809 64.948 57.2906 65.247L58.5937 68.8004L48.6631 65.7138L46.6566 65.7641L29.9523 57.8656C29.0701 57.4484 28.3557 56.7444 27.925 55.8689L16.2483 35.2161L23.8857 32.7912Z" fill="#FEC5C5"/>
<path d="M21.3064 26.2788C21.3064 26.2788 26.8713 29.4824 28.2203 34.3727C29.5694 39.263 28.5573 40.1066 31.2555 43.8163C33.9536 47.5266 33.7852 56.9696 31.7615 61.6068L14.5255 61.8347C14.5255 61.8347 17.0907 58.9086 16.0786 52.1638C15.0671 45.4184 11.8647 44.3751 9.67259 36.6175C7.48048 28.8606 12.4535 24.1707 12.4535 24.1707L21.3064 26.2788Z" fill="#FEC5C5"/>
<path d="M15.8327 18.546C16.6022 19.8541 12.7106 23.4878 12.5176 24.1427L21.43 26.7955C19.7795 21.0825 24.7108 19.9117 24.7108 19.9117C28.562 19.7677 28.6006 17.7061 28.8242 15.5268C29.0478 13.347 29.9387 12.507 29.9387 12.507C29.9387 12.507 27.8538 11.3564 28.0008 9.50803C28.1485 7.65962 27.1088 5.27269 27.1088 5.27269C29.6734 2.93722 27.9665 0.383026 27.9665 0.383026C27.9665 0.383026 25.4644 1.36329 22.0537 0.400793C16.6739 -1.118 13.5842 2.16894 13.5842 2.16894C10.5105 3.01074 9.56026 8.86044 11.3474 13.2152C13.1339 17.5694 14.687 16.5984 15.8327 18.546Z" fill="#FEC5C5"/>
<path d="M17.1892 8.11036L19.6111 17.7984C19.6111 17.7984 11.8296 28.0985 17.4318 37.9017C22.2755 46.3791 27.1193 60.1849 21.7909 68.9043L54.7314 73.264L61.5129 108.384" stroke="white" stroke-width="1.15333" stroke-miterlimit="10" stroke-linecap="round" stroke-linejoin="round"/>
<path d="M15.6235 33.0112L31.217 54.5849L48.548 64.5634" stroke="white" stroke-width="1.15333" stroke-miterlimit="10" stroke-linecap="round" stroke-linejoin="round"/>
<path d="M1.55747 33.3852C3.43427 35.1957 6.4382 39.0569 9.08463 46.7591C11.5197 53.8474 10.9909 58.949 10.5279 61.1869" stroke="#F25959" stroke-width="1.15333" stroke-linecap="round" stroke-linejoin="round"/>
<path d="M18.1727 8.12534C18.1727 8.70063 17.7064 9.16687 17.1311 9.16687C16.5558 9.16687 16.0896 8.70063 16.0896 8.12534C16.0896 7.55005 16.5558 7.08382 17.1311 7.08382C17.7064 7.08382 18.1727 7.55005 18.1727 8.12534Z" fill="#F25959"/>
<path d="M20.5423 17.6866C20.5423 18.2619 20.076 18.7281 19.5008 18.7281C18.9255 18.7281 18.4592 18.2619 18.4592 17.6866C18.4592 17.1113 18.9255 16.6451 19.5008 16.6451C20.076 16.6451 20.5423 17.1113 20.5423 17.6866Z" fill="#F25959"/>
<path d="M16.5467 32.9428C16.5467 33.5181 16.0804 33.9844 15.5051 33.9844C14.9299 33.9844 14.4636 33.5181 14.4636 32.9428C14.4636 32.3676 14.9299 31.9013 15.5051 31.9013C16.0804 31.9013 16.5467 32.3676 16.5467 32.9428Z" fill="#F25959"/>
</svg>
