<svg width="57" height="49" viewBox="0 0 57 49" fill="none" xmlns="http://www.w3.org/2000/svg">
<path d="M26.1285 22.4694L28.186 42.353L43.8849 51.9906L43.7095 52.4753L48.4045 54.267C48.668 54.3677 48.8717 54.5828 48.9578 54.8518L49.9821 58.0568L41.4092 55.477L39.5609 55.7755L24.9549 47.276C24.1871 46.8725 23.5782 46.2206 23.228 45.4272L19.96 24.0689L26.1285 22.4694Z" fill="#FEC5C5"/>
<path d="M26.54 20.5822C26.54 20.5822 25.7128 28.2511 28.2773 42.7639C29.7313 50.9938 24.8812 52.1004 24.8812 52.1004L10.9985 52.7435C10.9985 52.7435 8.29406 45.4575 10.0787 34.4491C11.8633 23.4413 19.6695 17.4285 19.6695 17.4285L26.54 20.5822Z" fill="#FEC5C5"/>
<path d="M25.0019 15.7805C24.7352 17.1033 20.0034 17.1995 19.4872 17.5185L22.9958 24.545C25.8479 20.5914 30.0683 21.9517 30.0683 21.9517C32.7031 24.1414 33.9522 22.7997 35.3931 21.4895C36.834 20.1793 37.9219 20.1517 37.9219 20.1517C37.9219 20.1517 37.2246 18.1531 38.4186 17.0171C39.6129 15.8806 40.3408 13.6843 40.3408 13.6843C43.4239 13.6597 43.8094 10.9558 43.8094 10.9558C43.8094 10.9558 41.571 10.1205 39.8848 7.46013C37.2243 3.26321 33.2291 3.60599 33.2291 3.60599C30.6953 2.33966 26.5959 5.64857 25.1957 9.59078C23.7948 13.5331 25.3987 13.8116 25.0019 15.7805Z" fill="#FEC5C5"/>
<path d="M33 12.0001L27 19.0001C27 19.0001 18.1322 22.2634 16.6052 33.1057C15.0781 43.9485 18.8598 58.0011 18.8598 58.0011L45.8666 61.3536L52.1991 92.2716" stroke="white" stroke-width="1.15333" stroke-miterlimit="10" stroke-linecap="round" stroke-linejoin="round"/>
<path d="M19.6741 25.7845C19.6741 26.2959 19.2597 26.7103 18.7483 26.7103C18.2369 26.7103 17.8225 26.2959 17.8225 25.7845C17.8225 25.2732 18.2369 24.8587 18.7483 24.8587C19.2597 24.8587 19.6741 25.2732 19.6741 25.7845Z" fill="white"/>
<path d="M18.6433 25.4171L28.55 46.1404L43.298 53.5653" stroke="white" stroke-width="1.15333" stroke-miterlimit="10" stroke-linecap="round" stroke-linejoin="round"/>
<path d="M19.3153 12.0613C17.2807 13.1724 13.7981 15.7759 9.71856 21.7566C5.96485 27.2603 5.21879 31.7581 5.09022 33.7855" stroke="#F25959" stroke-width="1.15333" stroke-linecap="round" stroke-linejoin="round"/>
<path d="M19.6741 25.7845C19.6741 26.2959 19.2597 26.7103 18.7483 26.7103C18.2369 26.7103 17.8225 26.2959 17.8225 25.7845C17.8225 25.2732 18.2369 24.8587 18.7483 24.8587C19.2597 24.8587 19.6741 25.2732 19.6741 25.7845Z" fill="#F25959"/>
<path d="M33.8516 11.9258C33.8516 12.4371 33.4372 12.8516 32.9258 12.8516C32.4144 12.8516 32 12.4371 32 11.9258C32 11.4144 32.4144 11 32.9258 11C33.4372 11 33.8516 11.4144 33.8516 11.9258Z" fill="#F25959"/>
<path d="M27.8516 18.9259C27.8516 19.4373 27.4372 19.8517 26.9258 19.8517C26.4144 19.8517 26 19.4373 26 18.9259C26 18.4145 26.4144 18.0001 26.9258 18.0001C27.4372 18.0001 27.8516 18.4145 27.8516 18.9259Z" fill="#F25959"/>
</svg>
