<svg width="23" height="23" viewBox="0 0 23 23" fill="none" xmlns="http://www.w3.org/2000/svg">
<path d="M8.625 20.8438C8.4831 20.843 8.34459 20.8004 8.22691 20.721C8.10924 20.6417 8.01767 20.5294 7.96375 20.3981L4.54969 12.2188H1.4375V10.7813H5.03125C5.17315 10.782 5.31166 10.8247 5.42934 10.904C5.54701 10.9833 5.63858 11.0956 5.6925 11.2269L8.625 18.17L14.4181 2.62344C14.4695 2.48587 14.5618 2.36735 14.6826 2.28382C14.8034 2.2003 14.9469 2.15578 15.0938 2.15625C15.242 2.15884 15.3858 2.2072 15.5054 2.2947C15.6251 2.38219 15.7148 2.50455 15.7622 2.645L18.4862 10.7813H21.5625V12.2188H17.9688C17.8181 12.2191 17.6711 12.1722 17.5485 12.0845C17.426 11.9968 17.3342 11.8728 17.2859 11.73L15.0938 5.03125L9.30062 20.3766C9.24923 20.5141 9.15692 20.6327 9.03613 20.7162C8.91534 20.7997 8.77186 20.8442 8.625 20.8438Z" fill="black"/>
</svg>
