<svg width="56" height="46" viewBox="0 0 56 46" fill="none" xmlns="http://www.w3.org/2000/svg">
<path d="M9.08558 48.7275L20.7379 36.9148L30.6351 21.3783L31.1168 21.5617L32.9863 16.8972C33.0914 16.6353 33.3099 16.4352 33.5803 16.3537L36.8018 15.3827L34.0799 23.9116L34.3476 25.7646L25.6066 40.2272C25.1903 40.9883 24.5284 41.5862 23.7292 41.9232L13.4415 53.5709L9.08558 48.7275Z" fill="#FEC5C5"/>
<path d="M26.0403 17.5822C26.0403 17.5822 25.213 25.2511 27.7775 39.7639C29.2316 47.9938 24.3814 49.1004 24.3814 49.1004L10.4987 49.7435C10.4987 49.7435 7.7943 42.4575 9.57892 31.4491C11.3635 20.4413 20.5 13 20.5 13L26.0403 17.5822Z" fill="#FEC5C5"/>
<path d="M26.2351 13.0387C25.5737 14.2149 21.0426 12.8479 20.4532 12.9922L21.6252 20.7581C25.557 17.8761 29.1526 20.4711 29.1526 20.4711C30.9842 23.3663 32.5859 22.475 34.3606 21.6727C36.1352 20.8705 37.1786 21.1796 37.1786 21.1796C37.1786 21.1796 37.1314 19.0634 38.6174 18.3507C40.1039 17.6376 41.4733 15.7727 41.4733 15.7727C44.4139 16.6996 45.614 14.2462 45.614 14.2462C45.614 14.2462 43.7421 12.7616 42.958 9.71102C41.7208 4.89838 37.8145 3.99298 37.8145 3.99298C35.7944 2.00728 30.8746 3.89146 28.3275 7.21013C25.7796 10.5287 27.2195 11.2879 26.2351 13.0387Z" fill="#FEC5C5"/>
<path d="M32.5002 9L26.5002 16C26.5002 16 17.6325 19.2633 16.1054 30.1055C14.5784 40.9483 18.36 55.0009 18.36 55.0009L45.3668 58.3534L51.6993 89.2715" stroke="white" stroke-width="1.15333" stroke-miterlimit="10" stroke-linecap="round" stroke-linejoin="round"/>
<path d="M18.1661 23.771L22.5001 38.5L32.5001 23.4999" stroke="white" stroke-width="1.15333" stroke-miterlimit="10" stroke-linecap="round" stroke-linejoin="round"/>
<path d="M19.1744 22.7844C19.1744 23.2958 18.7599 23.7102 18.2486 23.7102C17.7372 23.7102 17.3228 23.2958 17.3228 22.7844C17.3228 22.273 17.7372 21.8586 18.2486 21.8586C18.7599 21.8586 19.1744 22.273 19.1744 22.7844Z" fill="white"/>
<path d="M18.8151 9.06122C16.7804 10.1722 13.2978 12.7758 9.21832 18.7565C5.4646 24.2602 4.71855 28.758 4.58998 30.7854" stroke="#F25959" stroke-width="1.15333" stroke-linecap="round" stroke-linejoin="round"/>
<path d="M19.1744 22.7844C19.1744 23.2958 18.7599 23.7102 18.2486 23.7102C17.7372 23.7102 17.3228 23.2958 17.3228 22.7844C17.3228 22.273 17.7372 21.8586 18.2486 21.8586C18.7599 21.8586 19.1744 22.273 19.1744 22.7844Z" fill="#F25959"/>
<path d="M33.3516 8.92576C33.3516 9.43713 32.9372 9.85156 32.4258 9.85156C31.9144 9.85156 31.5 9.43713 31.5 8.92576C31.5 8.41439 31.9144 7.99995 32.4258 7.99995C32.9372 7.99995 33.3516 8.41439 33.3516 8.92576Z" fill="#F25959"/>
<path d="M27.3516 15.9258C27.3516 16.4371 26.9372 16.8516 26.4258 16.8516C25.9144 16.8516 25.5 16.4371 25.5 15.9258C25.5 15.4144 25.9144 15 26.4258 15C26.9372 15 27.3516 15.4144 27.3516 15.9258Z" fill="#F25959"/>
</svg>
