<svg width="57" height="52" viewBox="0 0 57 52" fill="none" xmlns="http://www.w3.org/2000/svg">
<path d="M26.3947 28.653L28.7094 51.0219L46.3706 61.8643L46.1734 62.4095L51.4551 64.4252C51.7517 64.5385 51.9808 64.7805 52.0776 65.0832L53.23 68.6887L43.5855 65.7865L41.5061 66.1223L25.0744 56.5604C24.2106 56.1064 23.5256 55.3731 23.1317 54.4804L19.4551 30.4523L26.3947 28.653Z" fill="#FEC5C5"/>
<path d="M26.8574 26.5299C26.8574 26.5299 25.9268 35.1575 28.8118 51.4844C30.4476 60.7429 24.9912 61.9879 24.9912 61.9879L9.37321 62.7114C9.37321 62.7114 6.33072 54.5146 8.33842 42.1302C10.3461 29.7464 19.1281 22.982 19.1281 22.982L26.8574 26.5299Z" fill="#FEC5C5"/>
<path d="M23.1727 17.9679C23.7511 19.3715 19.3871 22.4219 19.104 23.0432L26.7807 27.4176C26.9737 21.9367 31.7708 20.568 31.7708 20.568C35.6043 20.9669 35.9327 18.931 36.4602 16.8044C36.9877 14.6779 37.9875 13.9715 37.9875 13.9715C37.9875 13.9715 36.0852 12.5391 36.4908 10.7299C36.8964 8.92005 36.2029 6.41118 36.2029 6.41118C39.0701 4.45923 37.7388 1.68999 37.7388 1.68999C37.7388 1.68999 35.1233 2.3094 31.8823 0.876989C26.769 -1.38252 23.2481 1.43758 23.2481 1.43758C20.0867 1.83887 18.3241 7.49744 19.4814 12.0593C20.6381 16.6218 22.3119 15.8787 23.1727 17.9679Z" fill="#FEC5C5"/>
<path d="M27.7068 10.0388L27.6321 19.0756C27.6321 19.0756 17.3988 28.4212 15.6809 40.6187C13.9629 52.8169 18.2173 68.6261 18.2173 68.6261L48.5999 72.3976L55.724 107.18" stroke="white" stroke-width="1.15333" stroke-miterlimit="10" stroke-linecap="round" stroke-linejoin="round"/>
<path d="M19.1334 32.3825C19.1334 32.9578 18.6671 33.4241 18.0918 33.4241C17.5165 33.4241 17.0503 32.9578 17.0503 32.3825C17.0503 31.8073 17.5165 31.341 18.0918 31.341C18.6671 31.341 19.1334 31.8073 19.1334 32.3825Z" fill="white"/>
<path d="M17.9736 31.9691L29.1186 55.2828L45.7102 63.6359" stroke="white" stroke-width="1.15333" stroke-miterlimit="10" stroke-linecap="round" stroke-linejoin="round"/>
<path d="M12.2329 23.6966C10.4233 25.5747 7.56245 29.5427 5.19886 37.3367C3.02423 44.5089 3.73896 49.5881 4.28405 51.8075" stroke="#F25959" stroke-width="1.15333" stroke-linecap="round" stroke-linejoin="round"/>
<path d="M19.1334 32.3825C19.1334 32.9578 18.6671 33.4241 18.0918 33.4241C17.5165 33.4241 17.0503 32.9578 17.0503 32.3825C17.0503 31.8073 17.5165 31.341 18.0918 31.341C18.6671 31.341 19.1334 31.8073 19.1334 32.3825Z" fill="#F25959"/>
<path d="M28.8841 9.72593C28.8841 10.3012 28.4178 10.7675 27.8426 10.7675C27.2673 10.7675 26.801 10.3012 26.801 9.72593C26.801 9.15064 27.2673 8.6844 27.8426 8.6844C28.4178 8.6844 28.8841 9.15064 28.8841 9.72593Z" fill="#F25959"/>
<path d="M28.5723 18.9713C28.5723 19.5466 28.1061 20.0128 27.5308 20.0128C26.9555 20.0128 26.4893 19.5466 26.4893 18.9713C26.4893 18.396 26.9555 17.9298 27.5308 17.9298C28.1061 17.9298 28.5723 18.396 28.5723 18.9713Z" fill="#F25959"/>
</svg>
