<svg width="28" height="28" viewBox="0 0 28 28" fill="none" xmlns="http://www.w3.org/2000/svg">
<path fill-rule="evenodd" clip-rule="evenodd" d="M20.0431 5.14501C20.0431 3.59334 21.3031 2.33334 22.8548 2.33334C24.4064 2.33334 25.6664 3.59334 25.6664 5.14501C25.6664 6.69668 24.4064 7.95668 22.8548 7.95668C21.3031 7.95668 20.0431 6.69668 20.0431 5.14501ZM15.5513 17.2192L18.923 12.8687L18.8763 12.892C19.063 12.6354 19.098 12.3087 18.9696 12.017C18.8425 11.7254 18.5613 11.527 18.2591 11.5037C17.943 11.4687 17.6291 11.6087 17.4413 11.8654L14.6191 15.517L11.3863 12.9737C11.188 12.822 10.9546 12.7625 10.7213 12.787C10.4891 12.822 10.2791 12.9492 10.138 13.1359L6.68581 17.6287L6.61464 17.7337C6.41631 18.1059 6.50964 18.5842 6.85964 18.842C7.02298 18.947 7.19798 19.017 7.39631 19.017C7.66581 19.0287 7.92131 18.8875 8.08464 18.667L11.013 14.8975L14.338 17.3954L14.443 17.4642C14.8163 17.6625 15.283 17.5704 15.5513 17.2192ZM18.0246 4.41036C17.978 4.70203 17.9546 4.99369 17.9546 5.28536C17.9546 7.91036 20.078 10.0325 22.6913 10.0325C22.983 10.0325 23.263 9.99869 23.5546 9.95203V19.3659C23.5546 23.322 21.2213 25.667 17.2546 25.667H8.63414C4.66631 25.667 2.33298 23.322 2.33298 19.3659V10.7337C2.33298 6.76703 4.66631 4.41036 8.63414 4.41036H18.0246Z" fill="#101010"/>
</svg>
