<svg width="24" height="24" viewBox="0 0 24 24" fill="none" xmlns="http://www.w3.org/2000/svg">
<path fill-rule="evenodd" clip-rule="evenodd" d="M19.9241 11.6172C19.8764 11.502 19.8063 11.3938 19.7136 11.2995C19.7112 11.297 19.7089 11.2946 19.7065 11.2922L12.7071 4.29289C12.3166 3.90237 11.6834 3.90237 11.2929 4.29289C10.9024 4.68342 10.9024 5.31658 11.2929 5.70711L16.5858 11L5 11C4.44771 11 4 11.4477 4 12C4 12.5523 4.44771 13 5 13H16.5858L11.2929 18.2929C10.9024 18.6834 10.9024 19.3166 11.2929 19.7071C11.6834 20.0976 12.3166 20.0976 12.7071 19.7071L19.7066 12.7076L19.7071 12.7071M19.9241 11.6172C19.9727 11.7343 19.9996 11.8625 20 11.997C20 11.998 20 11.999 20 12C20 12.001 20 12.002 20 12.003C19.9992 12.257 19.9023 12.5108 19.7092 12.705" fill="#101E32"/>
</svg>
