<svg width="24" height="24" viewBox="0 0 24 24" fill="none" xmlns="http://www.w3.org/2000/svg">
<path fill-rule="evenodd" clip-rule="evenodd" d="M4 0C1.79086 0 0 1.79086 0 4V20C0 22.2091 1.79086 24 4 24H20C22.2091 24 24 22.2091 24 20V4C24 1.79086 22.2091 0 20 0H4ZM17.1161 6.61612C17.6043 6.12796 18.3957 6.12796 18.8839 6.61612C19.372 7.10427 19.372 7.89573 18.8839 8.38388L10.6339 16.6339C10.1457 17.122 9.35427 17.122 8.86612 16.6339L5.11612 12.8839C4.62796 12.3957 4.62796 11.6043 5.11612 11.1161C5.60427 10.628 6.39573 10.628 6.88388 11.1161L9.75 13.9822L17.1161 6.61612Z" fill="#101010"/>
</svg>
