<svg width="24" height="24" viewBox="0 0 24 24" fill="none" xmlns="http://www.w3.org/2000/svg">
<rect x="2" y="2" width="20" height="20" rx="10" fill="#101010"/>
<path d="M12.8225 11.9971L16.4952 8.3302C16.605 8.22043 16.6667 8.07154 16.6667 7.91629C16.6667 7.76104 16.605 7.61216 16.4952 7.50238C16.3855 7.3926 16.2366 7.33093 16.0813 7.33093C15.9261 7.33093 15.7772 7.3926 15.6674 7.50238L12.0005 11.1751L8.33361 7.50238C8.22383 7.3926 8.07494 7.33093 7.9197 7.33093C7.76445 7.33093 7.61556 7.3926 7.50579 7.50238C7.39601 7.61216 7.33434 7.76104 7.33434 7.91629C7.33434 8.07154 7.39601 8.22043 7.50579 8.3302L11.1785 11.9971L7.50579 15.664C7.45114 15.7182 7.40778 15.7827 7.37818 15.8537C7.34858 15.9248 7.33334 16.001 7.33334 16.0779C7.33334 16.1549 7.34858 16.2311 7.37818 16.3021C7.40778 16.3732 7.45114 16.4376 7.50579 16.4918C7.55998 16.5465 7.62446 16.5898 7.6955 16.6194C7.76654 16.649 7.84274 16.6643 7.9197 16.6643C7.99666 16.6643 8.07285 16.649 8.14389 16.6194C8.21494 16.5898 8.27941 16.5465 8.33361 16.4918L12.0005 12.8191L15.6674 16.4918C15.7216 16.5465 15.7861 16.5898 15.8571 16.6194C15.9282 16.649 16.0044 16.6643 16.0813 16.6643C16.1583 16.6643 16.2345 16.649 16.3055 16.6194C16.3766 16.5898 16.441 16.5465 16.4952 16.4918C16.5499 16.4376 16.5932 16.3732 16.6228 16.3021C16.6524 16.2311 16.6677 16.1549 16.6677 16.0779C16.6677 16.001 16.6524 15.9248 16.6228 15.8537C16.5932 15.7827 16.5499 15.7182 16.4952 15.664L12.8225 11.9971Z" fill="white"/>
</svg>
