<svg width="24" height="24" viewBox="0 0 24 24" fill="none" xmlns="http://www.w3.org/2000/svg">
<path fill-rule="evenodd" clip-rule="evenodd" d="M12 4C9.87827 4 7.84344 4.84285 6.34315 6.34315C4.84285 7.84344 4 9.87827 4 12C4 13.0506 4.20693 14.0909 4.60896 15.0615C5.011 16.0321 5.60028 16.914 6.34315 17.6569C7.08601 18.3997 7.96793 18.989 8.93853 19.391C9.90914 19.7931 10.9494 20 12 20C13.0506 20 14.0909 19.7931 15.0615 19.391C16.0321 18.989 16.914 18.3997 17.6569 17.6569C18.3997 16.914 18.989 16.0321 19.391 15.0615C19.7931 14.0909 20 13.0506 20 12C20 9.87827 19.1571 7.84344 17.6569 6.34315C16.1566 4.84285 14.1217 4 12 4ZM4.92893 4.92893C6.8043 3.05357 9.34784 2 12 2C14.6522 2 17.1957 3.05357 19.0711 4.92893C20.9464 6.8043 22 9.34784 22 12C22 13.3132 21.7413 14.6136 21.2388 15.8268C20.7362 17.0401 19.9997 18.1425 19.0711 19.0711C18.1425 19.9997 17.0401 20.7362 15.8268 21.2388C14.6136 21.7413 13.3132 22 12 22C10.6868 22 9.38642 21.7413 8.17317 21.2388C6.95991 20.7362 5.85752 19.9997 4.92893 19.0711C4.00035 18.1425 3.26375 17.0401 2.7612 15.8268C2.25866 14.6136 2 13.3132 2 12C2 9.34784 3.05357 6.8043 4.92893 4.92893ZM14.7793 6.76626C13.2312 5.41149 10.7683 5.41158 9.22036 6.76654C8.80479 7.1303 8.76278 7.76207 9.12654 8.17764C9.4903 8.59321 10.1221 8.63521 10.5376 8.27146C11.3316 7.57651 12.6684 7.57651 13.4624 8.27146L13.4627 8.27174C14.1791 8.89831 14.1791 9.85169 13.4627 10.4783L13.4627 10.4783L13.4596 10.4809C13.3302 10.5951 13.1806 10.693 13.0158 10.7727L13.0149 10.7731C12.1771 11.1791 11.001 12.0717 11.001 13.5V14.25C11.001 14.8023 11.4487 15.25 12.001 15.25C12.5533 15.25 13.001 14.8023 13.001 14.25V13.5C13.001 13.3879 13.0451 13.2462 13.1995 13.0696C13.3589 12.8873 13.6016 12.7112 13.8871 12.5729C14.2013 12.4209 14.5049 12.2254 14.7808 11.9824C16.4068 10.559 16.4064 8.18957 14.7796 6.76654M11 17.25C11 16.6977 11.4477 16.25 12 16.25H12.008C12.5603 16.25 13.008 16.6977 13.008 17.25V17.258C13.008 17.8103 12.5603 18.258 12.008 18.258H12C11.4477 18.258 11 17.8103 11 17.258V17.25Z" fill="#101010"/>
</svg>
