<svg width="24" height="24" viewBox="0 0 24 24" fill="none" xmlns="http://www.w3.org/2000/svg">
<path fill-rule="evenodd" clip-rule="evenodd" d="M5.94976 9.41421C6.34029 9.02369 6.34029 8.39052 5.94976 8C5.55924 7.60948 4.92607 7.60948 4.53555 8L1.29618 11.2394C1.28478 11.2507 1.27364 11.2622 1.26279 11.2741C1.0996 11.452 1 11.6893 1 11.9497C1 12.0911 1.02934 12.2257 1.08227 12.3476C1.12585 12.4482 1.18674 12.5431 1.26496 12.6278C1.27507 12.6387 1.28542 12.6495 1.29601 12.66L4.53555 15.8995C4.92607 16.29 5.55924 16.29 5.94976 15.8995C6.34029 15.509 6.34029 14.8758 5.94976 14.4853L4.41423 12.9497H9.8995C10.4518 12.9497 10.8995 12.502 10.8995 11.9497C10.8995 11.3975 10.4518 10.9497 9.8995 10.9497H4.41423L5.94976 9.41421ZM17.9497 8C18.3403 7.60948 18.9734 7.60948 19.3639 8L22.6032 11.2393C22.6147 11.2506 22.6258 11.2622 22.6367 11.2741C22.7134 11.3577 22.7733 11.4511 22.8165 11.5501C22.8699 11.6725 22.8995 11.8077 22.8995 11.9497C22.8995 12.0913 22.8701 12.2261 22.817 12.3481C22.7734 12.4485 22.7126 12.5433 22.6345 12.6278C22.6244 12.6388 22.614 12.6495 22.6034 12.66L19.3639 15.8995C18.9734 16.29 18.3403 16.29 17.9497 15.8995C17.5592 15.509 17.5592 14.8758 17.9497 14.4853L19.4853 12.9497H14C13.4477 12.9497 13 12.502 13 11.9497C13 11.3975 13.4477 10.9497 14 10.9497H19.4853L17.9497 9.41421C17.5592 9.02369 17.5592 8.39052 17.9497 8Z" fill="black"/>
</svg>
