<svg width="24" height="24" viewBox="0 0 24 24" fill="none" xmlns="http://www.w3.org/2000/svg">
<path fill-rule="evenodd" clip-rule="evenodd" d="M5.00243 5.03748C5.51635 4.89066 6.05196 5.18824 6.1988 5.70214L8.82148 14.8815L11.241 8.25415C11.3804 7.87232 11.7435 7.61829 12.15 7.61829C12.5565 7.61829 12.9197 7.87232 13.0591 8.25415L15.4786 14.8815L18.1012 5.70214C18.2481 5.18824 18.7837 4.89066 19.2976 5.03748C19.8115 5.18431 20.1091 5.71995 19.9622 6.23385L18.6864 10.6992H21.2652C21.7539 10.6992 22.15 11.1325 22.15 11.6669C22.15 12.2014 21.7539 12.6347 21.2652 12.6347H18.1334L16.5214 18.2769C16.4062 18.68 16.0446 18.9631 15.6256 18.9781C15.2066 18.9932 14.8256 18.7367 14.6818 18.3429L12.15 11.4079L9.61821 18.3429C9.47443 18.7367 9.09343 18.9932 8.67445 18.9781C8.25547 18.9631 7.89382 18.68 7.77864 18.2769L6.16659 12.6347H3.03481C2.54614 12.6347 2.15002 12.2014 2.15002 11.6669C2.15002 11.1325 2.54614 10.6992 3.03481 10.6992H5.61359L4.33779 6.23385C4.19095 5.71995 4.48853 5.18431 5.00243 5.03748Z" fill="#101E32"/>
</svg>
